<svg xmlns="http://www.w3.org/2000/svg" xmlns:xlink="http://www.w3.org/1999/xlink" zoomAndPan="magnify" preserveAspectRatio="xMidYMid meet" version="1.0" viewBox="39 134.84 286.57 41.16"><defs><g/><clipPath id="aefc6e75bf"><path d="M 39 142.445312 L 91.5 142.445312 L 91.5 176 L 39 176 Z M 39 142.445312 " clip-rule="nonzero"/></clipPath><clipPath id="3f1c25b920"><path d="M 49.171875 134.84375 L 75.960938 134.84375 L 75.960938 170.09375 L 49.171875 170.09375 Z M 49.171875 134.84375 " clip-rule="nonzero"/></clipPath></defs><g clip-path="url(#aefc6e75bf)"><path fill="#1f2034" d="M 81.144531 142.453125 C 95.21875 143.890625 94.03125 155.84375 83.019531 164.621094 C 73.433594 172.429688 60.550781 176.339844 51.257812 175.703125 C 34.78125 174.488281 35.820312 160.964844 50.691406 151.171875 C 60.335938 144.953125 37.9375 157.726562 40.324219 167.878906 C 41.230469 173.378906 48.90625 174.695312 54.5 174.460938 C 81.84375 173.003906 104.492188 146.265625 81.144531 142.453125 Z M 81.144531 142.453125 " fill-opacity="1" fill-rule="nonzero"/></g><path fill="#0583f2" d="M 80.941406 146.503906 C 90.0625 148.269531 85.625 158.667969 73.953125 164.207031 C 82.351562 158.53125 90.398438 149.964844 80.941406 146.503906 Z M 80.941406 146.503906 " fill-opacity="1" fill-rule="nonzero"/><g clip-path="url(#3f1c25b920)"><path fill="#0583f2" d="M 66.238281 136.269531 C 66.214844 136.269531 66.09375 136.398438 66.09375 136.421875 C 66.09375 136.4375 66.082031 136.472656 66.066406 136.5 C 66.019531 136.585938 65.902344 136.984375 65.902344 137.050781 C 65.902344 137.085938 65.910156 137.140625 65.921875 137.171875 C 65.929688 137.207031 65.960938 137.304688 65.984375 137.390625 C 66.007812 137.476562 66.035156 137.566406 66.042969 137.585938 C 66.054688 137.609375 66.085938 137.691406 66.117188 137.765625 C 66.167969 137.890625 66.195312 137.953125 66.210938 137.953125 C 66.226562 137.953125 66.230469 137.886719 66.226562 137.753906 C 66.222656 137.617188 66.207031 137.503906 66.191406 137.472656 C 66.171875 137.4375 66.160156 137.324219 66.15625 137.109375 C 66.152344 136.839844 66.15625 136.78125 66.195312 136.667969 C 66.21875 136.59375 66.238281 136.519531 66.238281 136.5 C 66.238281 136.480469 66.253906 136.449219 66.273438 136.425781 C 66.308594 136.378906 66.3125 136.328125 66.277344 136.296875 C 66.265625 136.28125 66.246094 136.269531 66.238281 136.269531 Z M 64.265625 138.179688 C 64.234375 138.179688 64.152344 138.265625 64.089844 138.363281 L 64.046875 138.433594 L 64.09375 138.433594 C 64.167969 138.433594 64.324219 138.199219 64.269531 138.179688 C 64.269531 138.179688 64.265625 138.179688 64.265625 138.179688 Z M 66.203125 138.925781 C 66.191406 138.925781 66.179688 138.933594 66.179688 138.949219 C 66.179688 138.957031 66.183594 138.96875 66.1875 138.96875 C 66.195312 138.96875 66.203125 138.957031 66.210938 138.949219 C 66.21875 138.933594 66.214844 138.925781 66.203125 138.925781 Z M 68.347656 134.84375 C 68.554688 134.84375 68.671875 134.851562 68.742188 134.871094 C 68.804688 134.882812 68.988281 134.925781 69.144531 134.957031 C 69.410156 135.007812 69.582031 135.074219 69.683594 135.15625 C 69.695312 135.164062 69.742188 135.179688 69.785156 135.1875 C 69.914062 135.210938 70.242188 135.445312 70.328125 135.574219 C 70.367188 135.628906 70.394531 135.691406 70.394531 135.710938 C 70.394531 135.730469 70.414062 135.777344 70.4375 135.820312 C 70.460938 135.863281 70.476562 135.910156 70.476562 135.925781 C 70.476562 135.964844 70.554688 136.195312 70.597656 136.28125 C 70.691406 136.472656 70.761719 137.109375 70.714844 137.363281 C 70.664062 137.636719 70.664062 137.648438 70.703125 137.753906 C 70.722656 137.804688 70.765625 137.894531 70.796875 137.945312 C 70.953125 138.203125 70.976562 138.257812 71 138.359375 C 71.027344 138.488281 71.015625 138.636719 70.972656 138.6875 C 70.957031 138.703125 70.882812 138.75 70.800781 138.785156 L 70.65625 138.855469 L 70.652344 138.976562 C 70.648438 139.070312 70.636719 139.113281 70.601562 139.15625 C 70.578125 139.1875 70.554688 139.234375 70.554688 139.253906 C 70.554688 139.335938 70.488281 139.453125 70.429688 139.476562 C 70.34375 139.511719 70.292969 139.597656 70.277344 139.726562 C 70.261719 139.871094 70.207031 139.988281 70.128906 140.042969 C 70.085938 140.074219 70.050781 140.085938 69.921875 140.085938 C 69.898438 140.085938 69.871094 140.085938 69.835938 140.082031 L 69.605469 140.082031 L 69.410156 139.984375 C 69.300781 139.929688 69.199219 139.871094 69.179688 139.855469 C 69.144531 139.820312 69.058594 139.796875 69 139.796875 C 68.984375 139.796875 68.96875 139.796875 68.957031 139.800781 C 68.933594 139.8125 68.835938 139.890625 68.742188 139.976562 C 68.601562 140.109375 68.558594 140.171875 68.46875 140.34375 C 68.367188 140.535156 68.320312 140.679688 68.289062 140.910156 C 68.277344 140.992188 68.28125 141 68.363281 141.089844 C 68.414062 141.144531 68.511719 141.226562 68.578125 141.277344 C 68.710938 141.371094 68.851562 141.511719 68.871094 141.566406 C 68.882812 141.613281 69.054688 141.710938 69.175781 141.742188 C 69.644531 141.863281 69.828125 141.96875 69.921875 142.171875 C 69.9375 142.210938 69.972656 142.277344 70 142.320312 C 70.132812 142.550781 70.175781 142.628906 70.21875 142.734375 C 70.242188 142.796875 70.277344 142.886719 70.300781 142.933594 C 70.316406 142.976562 70.355469 143.097656 70.378906 143.203125 C 70.402344 143.304688 70.433594 143.433594 70.449219 143.492188 C 70.464844 143.550781 70.492188 143.671875 70.507812 143.761719 C 70.53125 143.886719 70.558594 143.949219 70.628906 144.0625 C 70.679688 144.140625 70.746094 144.25 70.777344 144.308594 C 70.8125 144.363281 70.863281 144.460938 70.898438 144.523438 C 70.929688 144.582031 70.980469 144.664062 71.003906 144.703125 C 71.027344 144.738281 71.054688 144.792969 71.0625 144.816406 C 71.070312 144.84375 71.105469 144.902344 71.140625 144.949219 C 71.195312 145.023438 71.277344 145.1875 71.429688 145.535156 C 71.445312 145.566406 71.464844 145.621094 71.472656 145.648438 C 71.488281 145.71875 71.609375 145.980469 71.726562 146.207031 L 71.761719 146.277344 L 71.792969 146.230469 C 71.8125 146.207031 71.898438 146.117188 71.980469 146.027344 C 72.066406 145.941406 72.195312 145.804688 72.273438 145.726562 C 72.347656 145.648438 72.453125 145.546875 72.503906 145.5 C 72.621094 145.394531 72.863281 145.09375 72.992188 144.886719 C 73.046875 144.796875 73.105469 144.71875 73.121094 144.714844 C 73.144531 144.707031 73.402344 144.328125 73.402344 144.304688 C 73.402344 144.296875 73.4375 144.242188 73.484375 144.175781 C 73.613281 143.988281 73.792969 143.625 73.808594 143.523438 C 73.820312 143.457031 73.816406 143.390625 73.796875 143.328125 C 73.777344 143.273438 73.761719 143.144531 73.753906 143.042969 C 73.75 142.9375 73.730469 142.804688 73.714844 142.742188 C 73.699219 142.679688 73.683594 142.5625 73.683594 142.484375 C 73.6875 142.355469 73.695312 142.324219 73.769531 142.199219 C 73.8125 142.125 73.855469 142.03125 73.863281 141.992188 C 73.875 141.953125 73.886719 141.910156 73.898438 141.902344 C 73.90625 141.890625 73.917969 141.835938 73.925781 141.785156 C 73.933594 141.734375 73.96875 141.636719 74 141.570312 C 74.03125 141.503906 74.066406 141.402344 74.074219 141.347656 C 74.082031 141.28125 74.113281 141.210938 74.15625 141.15625 C 74.214844 141.074219 74.230469 141.066406 74.296875 141.066406 C 74.300781 141.066406 74.300781 141.066406 74.304688 141.066406 C 74.375 141.066406 74.402344 141.078125 74.476562 141.160156 C 74.53125 141.21875 74.558594 141.238281 74.582031 141.238281 C 74.589844 141.238281 74.601562 141.238281 74.613281 141.230469 C 74.632812 141.21875 74.671875 141.214844 74.722656 141.214844 C 74.820312 141.214844 74.945312 141.234375 74.980469 141.265625 C 75.003906 141.289062 75.054688 141.296875 75.140625 141.300781 C 75.261719 141.300781 75.277344 141.304688 75.34375 141.371094 C 75.382812 141.410156 75.414062 141.453125 75.414062 141.464844 C 75.414062 141.476562 75.433594 141.488281 75.457031 141.488281 C 75.484375 141.488281 75.535156 141.511719 75.582031 141.53125 C 75.664062 141.578125 75.664062 141.585938 75.714844 141.835938 C 75.71875 141.863281 75.746094 141.890625 75.792969 141.902344 C 75.941406 141.953125 75.957031 142.113281 75.855469 142.695312 C 75.828125 142.84375 75.800781 142.921875 75.652344 143.203125 C 75.523438 143.453125 75.449219 143.566406 75.355469 143.667969 C 75.289062 143.742188 75.214844 143.832031 75.195312 143.871094 C 75.179688 143.910156 75.136719 143.972656 75.105469 144.007812 C 75.070312 144.039062 75.011719 144.125 74.972656 144.191406 C 74.933594 144.261719 74.851562 144.398438 74.789062 144.503906 C 74.652344 144.730469 74.558594 144.90625 74.558594 144.941406 C 74.558594 144.980469 74.410156 145.273438 74.359375 145.335938 C 74.335938 145.367188 74.28125 145.460938 74.246094 145.546875 C 74.152344 145.746094 74.019531 146.011719 73.964844 146.105469 C 73.941406 146.144531 73.90625 146.210938 73.890625 146.253906 C 73.878906 146.296875 73.839844 146.363281 73.8125 146.398438 C 73.785156 146.433594 73.746094 146.503906 73.722656 146.546875 C 73.703125 146.59375 73.640625 146.710938 73.582031 146.808594 C 73.527344 146.902344 73.453125 147.035156 73.421875 147.097656 C 73.386719 147.15625 73.328125 147.246094 73.289062 147.289062 C 73.25 147.332031 73.15625 147.449219 73.082031 147.554688 C 73.011719 147.65625 72.890625 147.808594 72.8125 147.886719 C 72.59375 148.113281 72.285156 148.515625 72.15625 148.734375 C 72.085938 148.851562 71.972656 148.910156 71.835938 148.910156 C 71.730469 148.910156 71.613281 148.875 71.492188 148.804688 C 71.414062 148.757812 71.339844 148.71875 71.332031 148.71875 C 71.324219 148.71875 71.304688 148.703125 71.289062 148.6875 C 71.277344 148.667969 71.246094 148.644531 71.21875 148.632812 C 70.972656 148.519531 70.835938 148.410156 70.625 148.144531 C 70.570312 148.074219 70.5 148 70.472656 147.976562 C 70.394531 147.921875 70.1875 147.679688 70.121094 147.574219 C 70.089844 147.527344 69.996094 147.40625 69.910156 147.304688 C 69.824219 147.203125 69.726562 147.070312 69.695312 147.015625 C 69.664062 146.957031 69.574219 146.824219 69.492188 146.714844 C 69.414062 146.609375 69.320312 146.476562 69.285156 146.421875 C 69.253906 146.367188 69.1875 146.265625 69.144531 146.199219 C 69.097656 146.128906 69.050781 146.054688 69.039062 146.03125 C 69.027344 146.015625 69.023438 146.007812 69.011719 146.007812 C 69 146.007812 68.980469 146.023438 68.945312 146.058594 C 68.847656 146.148438 68.601562 146.296875 68.480469 146.339844 C 68.425781 146.359375 68.265625 146.386719 68.125 146.402344 C 67.847656 146.429688 67.75 146.464844 67.699219 146.566406 C 67.628906 146.699219 67.390625 147.046875 67.308594 147.132812 C 67.257812 147.183594 67.179688 147.289062 67.125 147.371094 C 67.074219 147.449219 66.917969 147.632812 66.777344 147.777344 C 66.519531 148.046875 66.480469 148.101562 66.363281 148.371094 C 66.328125 148.453125 66.265625 148.59375 66.222656 148.679688 C 66.183594 148.765625 66.128906 148.875 66.105469 148.929688 L 66.066406 149.023438 L 66.144531 149.046875 C 66.1875 149.0625 66.238281 149.074219 66.246094 149.074219 C 66.257812 149.074219 66.320312 149.097656 66.382812 149.128906 C 66.445312 149.15625 66.507812 149.179688 66.523438 149.179688 C 66.535156 149.179688 66.59375 149.203125 66.648438 149.230469 C 66.707031 149.257812 66.804688 149.285156 66.867188 149.292969 C 66.929688 149.300781 66.988281 149.316406 67 149.328125 C 67.011719 149.339844 67.039062 149.351562 67.0625 149.351562 C 67.101562 149.351562 67.3125 149.410156 67.457031 149.460938 C 67.492188 149.472656 67.5625 149.496094 67.613281 149.515625 C 67.664062 149.535156 67.730469 149.566406 67.761719 149.589844 C 67.789062 149.609375 67.824219 149.625 67.839844 149.625 C 67.851562 149.625 67.894531 149.644531 67.9375 149.667969 C 67.980469 149.691406 68.03125 149.710938 68.046875 149.710938 C 68.066406 149.710938 68.097656 149.726562 68.121094 149.742188 C 68.140625 149.757812 68.175781 149.773438 68.191406 149.773438 C 68.207031 149.773438 68.257812 149.792969 68.300781 149.816406 C 68.34375 149.839844 68.394531 149.859375 68.410156 149.859375 C 68.425781 149.859375 68.511719 149.898438 68.597656 149.945312 C 68.6875 149.992188 68.816406 150.054688 68.882812 150.085938 C 68.953125 150.113281 69.089844 150.191406 69.1875 150.257812 C 69.289062 150.328125 69.390625 150.390625 69.410156 150.394531 C 69.480469 150.417969 69.765625 150.578125 69.917969 150.679688 C 70 150.730469 70.085938 150.785156 70.113281 150.800781 C 70.144531 150.8125 70.222656 150.871094 70.289062 150.929688 C 70.355469 150.988281 70.449219 151.054688 70.496094 151.082031 C 70.574219 151.125 70.777344 151.269531 70.832031 151.324219 C 70.878906 151.371094 71.027344 151.46875 71.140625 151.523438 C 71.199219 151.558594 71.320312 151.652344 71.410156 151.742188 C 71.5 151.832031 71.59375 151.925781 71.621094 151.949219 C 71.695312 152.015625 71.765625 152.097656 71.765625 152.121094 C 71.761719 152.128906 71.792969 152.148438 71.832031 152.164062 C 71.898438 152.1875 71.96875 152.292969 71.96875 152.371094 C 71.96875 152.390625 71.988281 152.441406 72.015625 152.480469 C 72.078125 152.585938 72.128906 152.695312 72.195312 152.890625 C 72.261719 153.078125 72.265625 153.132812 72.226562 153.207031 C 72.210938 153.238281 72.191406 153.292969 72.183594 153.332031 C 72.164062 153.421875 71.453125 154.808594 71.34375 154.964844 C 71.304688 155.027344 71.261719 155.101562 71.253906 155.128906 C 71.230469 155.203125 71.140625 155.375 71.0625 155.492188 C 70.972656 155.628906 70.894531 155.765625 70.851562 155.851562 C 70.835938 155.890625 70.78125 155.96875 70.730469 156.027344 C 70.679688 156.085938 70.617188 156.167969 70.585938 156.214844 C 70.558594 156.261719 70.484375 156.34375 70.425781 156.398438 C 70.367188 156.457031 70.320312 156.507812 70.320312 156.519531 C 70.320312 156.558594 70.097656 156.855469 69.964844 157 C 69.886719 157.082031 69.804688 157.1875 69.78125 157.230469 C 69.761719 157.273438 69.621094 157.421875 69.480469 157.566406 C 69.335938 157.707031 69.191406 157.859375 69.164062 157.90625 C 69.105469 157.996094 69.03125 158.074219 68.914062 158.171875 C 68.875 158.207031 68.816406 158.273438 68.785156 158.316406 C 68.757812 158.363281 68.691406 158.441406 68.644531 158.492188 C 68.59375 158.542969 68.515625 158.628906 68.46875 158.6875 C 68.421875 158.746094 68.335938 158.84375 68.28125 158.90625 C 68.183594 159.019531 68.140625 159.074219 67.941406 159.363281 C 67.886719 159.441406 67.832031 159.503906 67.824219 159.503906 C 67.8125 159.503906 67.804688 159.515625 67.804688 159.53125 C 67.804688 159.546875 67.785156 159.574219 67.761719 159.597656 C 67.742188 159.617188 67.722656 159.640625 67.722656 159.648438 C 67.722656 159.65625 67.667969 159.738281 67.601562 159.828125 C 67.535156 159.917969 67.449219 160.050781 67.410156 160.125 C 67.371094 160.203125 67.324219 160.277344 67.300781 160.289062 C 67.246094 160.316406 67.25 160.347656 67.316406 160.433594 C 67.351562 160.472656 67.378906 160.523438 67.390625 160.542969 C 67.398438 160.570312 67.425781 160.578125 67.488281 160.578125 L 67.574219 160.582031 L 67.558594 160.667969 C 67.542969 160.792969 67.542969 160.789062 67.566406 160.882812 C 67.609375 161.054688 67.570312 161.347656 67.503906 161.347656 C 67.46875 161.347656 67.4375 161.425781 67.449219 161.480469 C 67.457031 161.511719 67.472656 161.535156 67.484375 161.535156 C 67.511719 161.535156 67.589844 161.625 67.644531 161.710938 C 67.691406 161.785156 67.695312 161.953125 67.65625 162.035156 C 67.632812 162.078125 67.542969 162.136719 67.464844 162.164062 C 67.449219 162.167969 67.492188 162.269531 67.589844 162.449219 C 67.601562 162.476562 67.636719 162.542969 67.660156 162.601562 C 67.6875 162.652344 67.722656 162.714844 67.742188 162.734375 C 67.765625 162.753906 67.78125 162.796875 67.78125 162.832031 C 67.78125 162.867188 67.796875 162.921875 67.820312 162.957031 C 67.84375 162.992188 67.863281 163.054688 67.859375 163.097656 C 67.859375 163.144531 67.875 163.210938 67.894531 163.25 C 67.929688 163.328125 68.089844 163.5 68.175781 163.5625 C 68.207031 163.578125 68.28125 163.640625 68.339844 163.699219 C 68.457031 163.808594 68.664062 163.972656 68.6875 163.972656 C 68.699219 163.972656 68.734375 164.015625 68.765625 164.070312 C 68.820312 164.15625 68.828125 164.1875 68.828125 164.316406 C 68.828125 164.394531 68.816406 164.472656 68.804688 164.484375 C 68.792969 164.496094 68.773438 164.558594 68.761719 164.625 C 68.734375 164.78125 68.703125 164.824219 68.5625 164.902344 C 68.480469 164.949219 68.453125 164.964844 68.363281 164.964844 C 68.324219 164.964844 68.277344 164.960938 68.214844 164.960938 C 68.074219 164.953125 67.960938 164.9375 67.929688 164.917969 C 67.902344 164.902344 67.835938 164.882812 67.785156 164.875 C 67.640625 164.851562 67.449219 164.796875 67.359375 164.75 C 67.316406 164.726562 67.261719 164.707031 67.242188 164.707031 C 67.21875 164.707031 67.148438 164.671875 67.085938 164.632812 C 67.019531 164.59375 66.925781 164.550781 66.867188 164.535156 C 66.800781 164.519531 66.746094 164.488281 66.691406 164.429688 C 66.636719 164.371094 66.585938 164.339844 66.523438 164.324219 C 66.398438 164.296875 66.34375 164.257812 66.308594 164.171875 C 66.277344 164.09375 66.1875 164.035156 66.101562 164.035156 C 66.03125 164.035156 65.96875 164 65.910156 163.929688 C 65.882812 163.894531 65.8125 163.839844 65.746094 163.804688 C 65.683594 163.765625 65.628906 163.722656 65.621094 163.703125 C 65.617188 163.6875 65.5625 163.652344 65.511719 163.628906 C 65.457031 163.605469 65.367188 163.542969 65.3125 163.488281 C 65.257812 163.4375 65.167969 163.375 65.117188 163.355469 C 65.003906 163.3125 64.769531 163.164062 64.769531 163.132812 C 64.769531 163.125 64.671875 163.066406 64.546875 163.003906 C 64.425781 162.945312 64.292969 162.867188 64.253906 162.828125 C 64.214844 162.792969 64.109375 162.714844 64.015625 162.65625 C 63.929688 162.601562 63.839844 162.527344 63.816406 162.5 C 63.796875 162.46875 63.703125 162.390625 63.605469 162.324219 C 63.308594 162.125 63.171875 161.949219 63.171875 161.785156 C 63.171875 161.695312 63.179688 161.679688 63.253906 161.617188 C 63.300781 161.578125 63.363281 161.539062 63.390625 161.53125 C 63.421875 161.527344 63.460938 161.515625 63.476562 161.507812 C 63.5 161.503906 63.515625 161.484375 63.515625 161.457031 C 63.515625 161.433594 63.53125 161.390625 63.546875 161.363281 C 63.5625 161.332031 63.59375 161.273438 63.613281 161.226562 C 63.632812 161.183594 63.6875 161.117188 63.734375 161.085938 C 63.777344 161.046875 63.859375 160.957031 63.910156 160.878906 C 64.023438 160.710938 64.414062 160.316406 64.53125 160.246094 C 64.578125 160.222656 64.671875 160.144531 64.742188 160.082031 C 64.902344 159.929688 64.953125 159.898438 65.039062 159.898438 C 65.042969 159.898438 65.042969 159.898438 65.042969 159.898438 C 65.046875 159.898438 65.046875 159.898438 65.050781 159.898438 C 65.128906 159.898438 65.148438 159.882812 65.1875 159.816406 C 65.203125 159.785156 65.289062 159.667969 65.378906 159.546875 C 65.46875 159.425781 65.570312 159.273438 65.609375 159.207031 C 65.644531 159.136719 65.710938 159.042969 65.753906 158.996094 C 65.867188 158.863281 65.921875 158.789062 65.921875 158.761719 C 65.921875 158.746094 65.9375 158.71875 65.949219 158.703125 C 65.976562 158.671875 66.183594 158.332031 66.261719 158.195312 C 66.339844 158.050781 66.554688 157.625 66.554688 157.609375 C 66.554688 157.597656 66.597656 157.539062 66.648438 157.480469 C 66.695312 157.417969 66.746094 157.34375 66.753906 157.316406 C 66.761719 157.289062 66.785156 157.226562 66.808594 157.183594 C 66.886719 157.007812 66.910156 156.949219 66.949219 156.820312 C 66.972656 156.746094 67 156.636719 67.007812 156.582031 C 67.015625 156.523438 67.035156 156.445312 67.054688 156.40625 C 67.070312 156.371094 67.082031 156.3125 67.082031 156.277344 C 67.085938 156.191406 67.183594 155.925781 67.308594 155.671875 C 67.335938 155.613281 67.359375 155.550781 67.359375 155.53125 C 67.359375 155.511719 67.371094 155.492188 67.382812 155.484375 C 67.394531 155.476562 67.425781 155.417969 67.457031 155.355469 C 67.484375 155.289062 67.515625 155.222656 67.527344 155.207031 C 67.539062 155.1875 67.574219 155.125 67.613281 155.066406 C 67.648438 155.007812 67.695312 154.949219 67.714844 154.933594 C 67.734375 154.917969 67.773438 154.863281 67.804688 154.8125 C 67.882812 154.679688 68.28125 154.199219 68.402344 154.09375 C 68.5 154 68.597656 153.875 68.597656 153.824219 C 68.597656 153.785156 68.410156 153.714844 68.214844 153.6875 C 68.128906 153.671875 68.050781 153.664062 68.027344 153.664062 C 68.019531 153.664062 68.019531 153.664062 68.015625 153.664062 C 68.015625 153.664062 68.011719 153.664062 68.003906 153.664062 C 67.96875 153.664062 67.867188 153.65625 67.753906 153.640625 C 67.539062 153.613281 65.074219 153.527344 64.308594 153.519531 L 64.097656 153.519531 L 64.097656 153.457031 C 64.097656 153.398438 64.0625 153.375 63.929688 153.34375 L 63.878906 153.332031 L 63.878906 153.929688 C 63.878906 154.257812 63.875 154.597656 63.867188 154.6875 C 63.847656 154.875 63.828125 154.910156 63.652344 154.910156 C 63.625 154.910156 63.59375 154.910156 63.558594 154.910156 C 63.507812 154.90625 63.46875 154.90625 63.433594 154.90625 C 63.300781 154.90625 63.296875 154.929688 63.296875 155.03125 C 63.296875 155.085938 63.277344 155.183594 63.253906 155.25 C 63.230469 155.316406 63.207031 155.414062 63.199219 155.46875 C 63.191406 155.519531 63.175781 155.570312 63.164062 155.578125 C 63.15625 155.585938 63.144531 155.617188 63.144531 155.648438 C 63.144531 155.707031 63.035156 156.054688 62.988281 156.144531 C 62.953125 156.207031 62.878906 156.40625 62.859375 156.476562 C 62.851562 156.507812 62.839844 156.546875 62.828125 156.570312 C 62.816406 156.59375 62.78125 156.691406 62.746094 156.789062 C 62.667969 157.007812 62.574219 157.226562 62.550781 157.25 C 62.539062 157.261719 62.53125 157.285156 62.53125 157.300781 C 62.53125 157.324219 62.453125 157.496094 62.40625 157.574219 C 62.394531 157.589844 62.355469 157.675781 62.316406 157.757812 C 62.28125 157.84375 62.222656 157.96875 62.191406 158.039062 C 62.160156 158.105469 62.113281 158.222656 62.089844 158.296875 C 62.027344 158.476562 61.921875 158.691406 61.886719 158.71875 C 61.871094 158.730469 61.832031 158.808594 61.804688 158.890625 C 61.773438 158.976562 61.710938 159.101562 61.667969 159.171875 C 61.621094 159.246094 61.582031 159.3125 61.582031 159.324219 C 61.582031 159.335938 61.546875 159.398438 61.507812 159.460938 C 61.46875 159.527344 61.433594 159.59375 61.433594 159.605469 C 61.433594 159.617188 61.359375 159.730469 61.269531 159.863281 C 61.183594 159.992188 61.097656 160.113281 61.089844 160.132812 C 60.855469 160.496094 60.578125 160.8125 60.417969 160.886719 C 60.371094 160.910156 60.332031 160.933594 60.324219 160.941406 C 60.316406 160.949219 60.277344 160.972656 60.238281 160.992188 C 60.191406 161.015625 60.097656 161.058594 60.027344 161.09375 C 59.910156 161.152344 59.640625 161.246094 59.589844 161.246094 C 59.574219 161.246094 59.15625 161.445312 58.957031 161.546875 C 58.9375 161.558594 58.878906 161.585938 58.824219 161.605469 C 58.632812 161.675781 58.542969 161.71875 58.460938 161.777344 C 58.316406 161.875 58.144531 161.980469 58.132812 161.980469 C 58.117188 161.980469 58.023438 162.042969 57.859375 162.164062 C 57.789062 162.210938 57.683594 162.28125 57.625 162.316406 C 57.5625 162.351562 57.457031 162.425781 57.390625 162.476562 C 57.316406 162.53125 57.257812 162.574219 57.253906 162.574219 C 57.25 162.574219 57.117188 162.660156 56.957031 162.765625 C 56.796875 162.867188 56.617188 162.976562 56.554688 163.007812 C 56.492188 163.035156 56.417969 163.078125 56.394531 163.101562 C 56.375 163.128906 56.289062 163.179688 56.207031 163.222656 C 56.128906 163.265625 56.035156 163.3125 56 163.335938 C 55.964844 163.355469 55.914062 163.375 55.882812 163.382812 C 55.851562 163.390625 55.734375 163.453125 55.625 163.527344 C 55.511719 163.601562 55.414062 163.660156 55.40625 163.660156 C 55.398438 163.660156 55.324219 163.710938 55.238281 163.773438 C 55.152344 163.835938 54.996094 163.929688 54.890625 163.984375 C 54.753906 164.050781 54.679688 164.101562 54.644531 164.148438 C 54.621094 164.1875 54.511719 164.289062 54.402344 164.375 C 54.292969 164.464844 54.164062 164.578125 54.109375 164.628906 C 53.878906 164.847656 53.742188 164.96875 53.695312 164.996094 C 53.628906 165.039062 53.167969 165.492188 52.992188 165.6875 C 52.832031 165.867188 52.785156 165.9375 52.761719 166.050781 L 52.75 166.125 L 52.839844 166.109375 C 52.898438 166.097656 52.953125 166.09375 53 166.09375 C 53.066406 166.09375 53.113281 166.105469 53.132812 166.125 C 53.152344 166.140625 53.171875 166.195312 53.179688 166.238281 L 53.191406 166.316406 L 53.269531 166.289062 C 53.308594 166.277344 53.375 166.246094 53.414062 166.226562 C 53.445312 166.210938 53.472656 166.207031 53.5 166.207031 C 53.589844 166.207031 53.640625 166.289062 53.554688 166.371094 C 53.527344 166.398438 53.460938 166.4375 53.402344 166.457031 C 53.34375 166.476562 53.285156 166.507812 53.269531 166.519531 C 53.21875 166.554688 53.03125 166.589844 52.867188 166.589844 C 52.863281 166.589844 52.859375 166.589844 52.855469 166.589844 C 52.753906 166.589844 52.699219 166.601562 52.65625 166.628906 C 52.621094 166.652344 52.578125 166.675781 52.5625 166.679688 C 52.277344 166.796875 52.269531 166.804688 52.195312 167.003906 C 52.175781 167.054688 52.117188 167.175781 52.054688 167.269531 C 52 167.363281 51.953125 167.441406 51.953125 167.449219 C 51.953125 167.453125 51.917969 167.527344 51.878906 167.609375 C 51.839844 167.691406 51.804688 167.777344 51.804688 167.792969 C 51.804688 167.835938 51.671875 168.054688 51.625 168.09375 C 51.597656 168.117188 51.46875 168.359375 51.46875 168.394531 C 51.46875 168.398438 51.445312 168.460938 51.414062 168.523438 C 51.320312 168.726562 51.238281 168.925781 51.171875 169.117188 C 51.136719 169.21875 51.097656 169.320312 51.089844 169.34375 C 50.957031 169.648438 50.867188 169.789062 50.710938 169.921875 C 50.660156 169.96875 50.597656 170.023438 50.570312 170.046875 C 50.527344 170.085938 50.4375 170.105469 50.324219 170.105469 C 50.28125 170.105469 50.234375 170.101562 50.1875 170.097656 C 50.015625 170.074219 49.8125 169.945312 49.632812 169.734375 C 49.484375 169.566406 49.421875 169.449219 49.394531 169.308594 C 49.386719 169.261719 49.367188 169.210938 49.355469 169.1875 C 49.335938 169.160156 49.328125 169.085938 49.328125 168.980469 C 49.328125 168.847656 49.320312 168.804688 49.289062 168.773438 C 49.210938 168.683594 49.183594 168.46875 49.230469 168.328125 C 49.246094 168.277344 49.246094 168.242188 49.21875 168.164062 C 49.179688 168.042969 49.191406 167.941406 49.265625 167.796875 C 49.296875 167.730469 49.308594 167.683594 49.296875 167.664062 C 49.257812 167.582031 49.253906 167.457031 49.289062 167.378906 C 49.308594 167.332031 49.332031 167.222656 49.339844 167.125 C 49.351562 167.03125 49.371094 166.9375 49.386719 166.921875 C 49.40625 166.898438 49.417969 166.8125 49.421875 166.679688 C 49.429688 166.5625 49.441406 166.449219 49.453125 166.421875 C 49.472656 166.386719 49.472656 166.355469 49.457031 166.304688 C 49.425781 166.21875 49.425781 165.917969 49.460938 165.847656 C 49.476562 165.804688 49.480469 165.761719 49.457031 165.660156 C 49.4375 165.554688 49.4375 165.492188 49.46875 165.292969 C 49.523438 164.910156 49.539062 164.859375 49.617188 164.691406 C 49.75 164.421875 49.820312 164.382812 50.253906 164.328125 C 50.464844 164.300781 50.660156 164.246094 50.816406 164.167969 C 50.925781 164.117188 50.953125 164.113281 51.324219 164.101562 C 52 164.085938 52.109375 164.058594 52.28125 163.882812 C 52.433594 163.726562 52.519531 163.652344 52.597656 163.613281 C 52.628906 163.597656 52.71875 163.515625 52.792969 163.4375 C 52.863281 163.355469 52.9375 163.289062 52.949219 163.289062 C 52.964844 163.289062 53 163.261719 53.035156 163.226562 C 53.066406 163.195312 53.125 163.160156 53.160156 163.144531 C 53.210938 163.128906 53.253906 163.085938 53.328125 162.980469 C 53.441406 162.8125 53.511719 162.738281 53.699219 162.601562 C 53.773438 162.542969 53.835938 162.488281 53.835938 162.476562 C 53.839844 162.445312 54.035156 162.199219 54.125 162.113281 C 54.167969 162.074219 54.277344 161.964844 54.363281 161.878906 C 54.449219 161.789062 54.546875 161.695312 54.582031 161.664062 C 54.710938 161.558594 55.015625 161.238281 55.082031 161.136719 C 55.121094 161.078125 55.207031 160.984375 55.273438 160.917969 C 55.34375 160.855469 55.433594 160.753906 55.476562 160.691406 C 55.59375 160.527344 55.820312 160.308594 55.929688 160.253906 C 55.984375 160.226562 56.09375 160.144531 56.179688 160.070312 C 56.265625 159.992188 56.394531 159.902344 56.472656 159.867188 C 56.546875 159.828125 56.617188 159.789062 56.628906 159.777344 C 56.640625 159.761719 56.738281 159.714844 56.84375 159.667969 C 56.949219 159.628906 57.0625 159.570312 57.09375 159.550781 C 57.125 159.53125 57.210938 159.484375 57.285156 159.445312 C 57.441406 159.371094 57.53125 159.320312 57.652344 159.234375 C 57.699219 159.203125 57.785156 159.167969 57.835938 159.15625 C 57.894531 159.144531 57.972656 159.109375 58.011719 159.078125 C 58.109375 159.003906 58.15625 158.980469 58.246094 158.964844 C 58.34375 158.949219 58.496094 158.851562 58.558594 158.765625 C 58.609375 158.695312 58.640625 158.539062 58.6875 158.136719 C 58.699219 158.03125 58.71875 157.917969 58.726562 157.875 C 58.738281 157.835938 58.753906 157.761719 58.761719 157.710938 C 58.769531 157.660156 58.789062 157.578125 58.804688 157.523438 C 58.820312 157.472656 58.839844 157.300781 58.847656 157.140625 C 58.878906 156.570312 58.910156 156.242188 58.941406 156.167969 C 58.957031 156.128906 58.972656 156.046875 58.972656 155.988281 C 58.972656 155.925781 58.984375 155.839844 58.996094 155.792969 C 59.007812 155.746094 59.03125 155.636719 59.046875 155.542969 C 59.0625 155.453125 59.089844 155.3125 59.113281 155.234375 C 59.132812 155.152344 59.160156 155.039062 59.175781 154.976562 C 59.195312 154.898438 59.203125 154.738281 59.199219 154.46875 C 59.199219 154.15625 59.203125 154.066406 59.226562 154.019531 C 59.269531 153.9375 59.28125 152.808594 59.238281 152.789062 C 59.21875 152.78125 59.207031 152.710938 59.199219 152.53125 C 59.175781 152.121094 59.171875 152.074219 59.140625 151.648438 C 59.113281 151.246094 59.113281 151.132812 59.160156 150.835938 C 59.191406 150.632812 59.285156 150.265625 59.320312 150.210938 C 59.335938 150.183594 59.347656 150.136719 59.351562 150.105469 C 59.351562 150.023438 59.460938 149.726562 59.558594 149.5625 C 59.605469 149.480469 59.714844 149.34375 59.847656 149.210938 C 60.042969 149.015625 60.078125 148.988281 60.214844 148.9375 L 60.367188 148.878906 L 60.5 148.65625 C 60.636719 148.425781 60.683594 148.375 60.882812 148.246094 C 60.945312 148.207031 61.058594 148.105469 61.144531 148.027344 C 61.226562 147.945312 61.335938 147.855469 61.382812 147.824219 C 61.433594 147.792969 61.496094 147.746094 61.527344 147.726562 C 61.554688 147.707031 61.613281 147.671875 61.65625 147.652344 C 61.757812 147.605469 61.902344 147.488281 61.902344 147.453125 C 61.902344 147.433594 61.910156 147.40625 61.921875 147.386719 C 61.972656 147.300781 62.132812 146.941406 62.132812 146.917969 C 62.132812 146.90625 62.148438 146.871094 62.167969 146.847656 C 62.183594 146.824219 62.230469 146.722656 62.261719 146.621094 C 62.34375 146.398438 62.433594 146.207031 62.492188 146.148438 C 62.570312 146.0625 62.695312 145.679688 62.714844 145.445312 C 62.722656 145.367188 62.742188 145.246094 62.757812 145.175781 C 62.777344 145.109375 62.796875 145.019531 62.800781 144.980469 C 62.8125 144.941406 62.835938 144.859375 62.859375 144.796875 C 62.878906 144.738281 62.898438 144.664062 62.898438 144.632812 C 62.898438 144.601562 62.910156 144.535156 62.929688 144.484375 C 62.996094 144.277344 63.023438 144.15625 63.039062 144.046875 C 63.042969 143.988281 63.0625 143.90625 63.082031 143.871094 C 63.144531 143.738281 63.183594 143.597656 63.191406 143.457031 C 63.199219 143.378906 63.210938 143.300781 63.222656 143.285156 C 63.242188 143.269531 63.230469 143.261719 63.179688 143.261719 C 63.144531 143.261719 63.117188 143.253906 63.117188 143.246094 C 63.117188 143.234375 63.101562 143.207031 63.085938 143.1875 C 63.078125 143.175781 63.074219 143.167969 63.066406 143.167969 C 63.058594 143.167969 63.058594 143.203125 63.058594 143.300781 C 63.0625 143.429688 63.050781 143.484375 63 143.484375 C 62.976562 143.484375 62.941406 143.472656 62.898438 143.449219 C 62.789062 143.398438 62.722656 143.300781 62.722656 143.199219 C 62.722656 143.160156 62.722656 143.144531 62.710938 143.144531 C 62.703125 143.144531 62.695312 143.148438 62.683594 143.152344 C 62.660156 143.167969 62.632812 143.171875 62.609375 143.171875 C 62.574219 143.171875 62.542969 143.160156 62.523438 143.136719 C 62.453125 143.046875 62.410156 142.921875 62.421875 142.847656 C 62.445312 142.679688 62.464844 142.621094 62.5 142.582031 C 62.519531 142.558594 62.542969 142.496094 62.550781 142.4375 C 62.566406 142.339844 62.585938 142.292969 62.695312 142.0625 C 62.714844 142.015625 62.789062 141.929688 62.859375 141.871094 C 62.925781 141.8125 62.984375 141.75 62.984375 141.734375 C 62.984375 141.71875 63.007812 141.695312 63.035156 141.675781 C 63.105469 141.628906 63.101562 141.601562 63.027344 141.578125 C 62.976562 141.558594 62.964844 141.542969 62.964844 141.5 C 62.964844 141.46875 62.980469 141.425781 62.996094 141.40625 C 63.011719 141.382812 63.027344 141.332031 63.027344 141.296875 C 63.027344 141.257812 63.035156 141.226562 63.046875 141.226562 C 63.058594 141.226562 63.09375 141.179688 63.132812 141.125 C 63.171875 141.0625 63.214844 141.019531 63.238281 141.019531 C 63.261719 141.019531 63.285156 140.992188 63.308594 140.941406 C 63.339844 140.867188 63.339844 140.867188 63.285156 140.859375 C 63.261719 140.855469 63.234375 140.839844 63.226562 140.824219 C 63.207031 140.777344 62.914062 140.714844 62.605469 140.695312 C 62.480469 140.6875 62.328125 140.671875 62.265625 140.660156 C 62.203125 140.648438 62.042969 140.628906 61.914062 140.617188 C 61.78125 140.605469 61.578125 140.574219 61.457031 140.550781 C 61.132812 140.484375 60.882812 140.441406 60.75 140.421875 C 60.6875 140.410156 60.617188 140.394531 60.59375 140.382812 C 60.574219 140.371094 60.5 140.355469 60.433594 140.347656 C 60.371094 140.339844 60.277344 140.316406 60.230469 140.296875 C 60.164062 140.269531 60.066406 140.261719 59.738281 140.257812 L 59.332031 140.253906 L 59.070312 140.34375 C 58.789062 140.4375 58.707031 140.472656 58.644531 140.527344 C 58.621094 140.550781 58.535156 140.589844 58.457031 140.617188 C 58.375 140.648438 58.28125 140.6875 58.242188 140.703125 C 58.207031 140.71875 58.164062 140.734375 58.148438 140.734375 C 58.136719 140.734375 58.085938 140.75 58.042969 140.773438 C 57.996094 140.796875 57.949219 140.8125 57.9375 140.8125 C 57.933594 140.8125 57.933594 140.8125 57.933594 140.8125 C 57.921875 140.8125 57.882812 140.828125 57.847656 140.847656 C 57.734375 140.898438 57.152344 141.054688 57.0625 141.054688 C 57.039062 141.054688 56.949219 141.074219 56.863281 141.097656 C 56.78125 141.117188 56.664062 141.136719 56.609375 141.136719 C 56.609375 141.136719 56.609375 141.136719 56.605469 141.136719 C 56.605469 141.136719 56.605469 141.136719 56.601562 141.136719 C 56.546875 141.136719 56.492188 141.144531 56.480469 141.15625 C 56.453125 141.183594 56.1875 141.25 55.972656 141.285156 C 55.875 141.300781 55.746094 141.328125 55.683594 141.34375 C 55.621094 141.359375 55.511719 141.382812 55.441406 141.390625 C 55.375 141.402344 55.28125 141.421875 55.234375 141.433594 C 55.191406 141.445312 55.121094 141.457031 55.078125 141.457031 C 55.011719 141.457031 54.894531 141.503906 54.761719 141.585938 C 54.734375 141.601562 54.648438 141.640625 54.570312 141.667969 C 54.488281 141.699219 54.386719 141.742188 54.339844 141.761719 C 54.292969 141.78125 54.246094 141.800781 54.238281 141.804688 C 54.121094 141.84375 53.878906 142.007812 53.8125 142.085938 C 53.71875 142.199219 53.648438 142.257812 53.523438 142.3125 C 53.503906 142.324219 53.394531 142.371094 53.285156 142.421875 C 53.175781 142.472656 53.0625 142.523438 53.03125 142.535156 C 52.996094 142.550781 52.941406 142.558594 52.894531 142.558594 C 52.851562 142.558594 52.808594 142.550781 52.789062 142.539062 C 52.785156 142.535156 52.777344 142.535156 52.765625 142.535156 C 52.75 142.535156 52.726562 142.539062 52.707031 142.550781 C 52.679688 142.5625 52.546875 142.582031 52.417969 142.59375 C 52.269531 142.605469 52.164062 142.625 52.132812 142.644531 C 52.105469 142.664062 52.042969 142.675781 51.976562 142.675781 C 51.976562 142.675781 51.972656 142.675781 51.972656 142.675781 C 51.855469 142.675781 51.808594 142.648438 51.785156 142.554688 C 51.773438 142.527344 51.761719 142.511719 51.734375 142.511719 C 51.710938 142.511719 51.679688 142.519531 51.632812 142.539062 C 51.59375 142.554688 51.503906 142.570312 51.433594 142.570312 C 51.433594 142.570312 51.429688 142.570312 51.429688 142.570312 C 51.316406 142.566406 51.289062 142.558594 51.207031 142.496094 C 51.0625 142.382812 51.019531 142.1875 51.117188 142.082031 C 51.160156 142.035156 51.351562 141.945312 51.40625 141.945312 C 51.421875 141.945312 51.46875 141.9375 51.511719 141.925781 C 51.597656 141.902344 51.613281 141.859375 51.558594 141.789062 C 51.511719 141.726562 51.519531 141.527344 51.574219 141.460938 C 51.609375 141.417969 51.617188 141.390625 51.605469 141.324219 C 51.589844 141.210938 51.628906 141.089844 51.691406 141.039062 L 51.746094 140.996094 L 51.691406 140.917969 C 51.640625 140.839844 51.621094 140.691406 51.652344 140.609375 C 51.691406 140.511719 52.023438 140.4375 52.320312 140.4375 C 52.414062 140.4375 52.5 140.445312 52.578125 140.460938 C 52.640625 140.472656 52.839844 140.503906 53.023438 140.527344 L 53.355469 140.566406 L 53.5 140.511719 C 53.578125 140.480469 53.679688 140.445312 53.71875 140.4375 C 53.8125 140.421875 53.988281 140.363281 54.132812 140.308594 C 54.378906 140.210938 54.839844 140.058594 55.003906 140.023438 C 55.097656 140 55.246094 139.949219 55.324219 139.910156 C 55.523438 139.820312 55.804688 139.714844 56.046875 139.640625 C 56.15625 139.605469 56.308594 139.554688 56.390625 139.527344 C 56.46875 139.5 56.570312 139.476562 56.613281 139.476562 C 56.613281 139.476562 56.613281 139.476562 56.617188 139.476562 C 56.71875 139.476562 56.871094 139.410156 56.886719 139.355469 C 56.898438 139.308594 57.054688 139.222656 57.191406 139.191406 C 57.246094 139.175781 57.332031 139.144531 57.390625 139.117188 C 57.488281 139.070312 57.597656 139.039062 57.859375 138.976562 C 58.007812 138.9375 58.128906 138.90625 58.417969 138.816406 C 58.550781 138.777344 58.738281 138.726562 58.84375 138.703125 C 58.941406 138.683594 59.085938 138.636719 59.164062 138.601562 C 59.300781 138.542969 59.613281 138.488281 59.800781 138.488281 C 59.828125 138.488281 59.851562 138.488281 59.875 138.492188 C 60.054688 138.515625 60.671875 138.542969 61.003906 138.542969 C 61.109375 138.542969 61.183594 138.539062 61.214844 138.535156 C 61.496094 138.488281 61.664062 138.476562 62.324219 138.476562 C 62.414062 138.476562 62.515625 138.476562 62.625 138.476562 C 62.847656 138.476562 63.023438 138.480469 63.164062 138.480469 C 63.738281 138.480469 63.699219 138.453125 63.75 138.269531 C 63.78125 138.15625 63.804688 138.113281 63.890625 138.027344 C 63.945312 137.972656 64.007812 137.902344 64.027344 137.875 C 64.042969 137.847656 64.085938 137.816406 64.113281 137.804688 C 64.214844 137.761719 64.316406 137.679688 64.351562 137.617188 C 64.375 137.578125 64.398438 137.460938 64.421875 137.292969 C 64.476562 136.800781 64.535156 136.605469 64.667969 136.398438 C 64.707031 136.339844 64.761719 136.234375 64.789062 136.167969 C 64.851562 136.007812 64.96875 135.816406 65.03125 135.769531 C 65.058594 135.75 65.101562 135.695312 65.128906 135.652344 C 65.183594 135.566406 65.257812 135.523438 65.617188 135.363281 C 65.734375 135.308594 65.910156 135.28125 66.082031 135.28125 C 66.261719 135.28125 66.433594 135.3125 66.523438 135.371094 C 66.566406 135.398438 66.617188 135.421875 66.632812 135.421875 C 66.652344 135.421875 66.714844 135.453125 66.769531 135.488281 C 66.824219 135.519531 66.875 135.550781 66.878906 135.550781 C 66.902344 135.550781 66.96875 135.46875 67.015625 135.375 C 67.082031 135.246094 67.132812 135.203125 67.28125 135.148438 C 67.347656 135.125 67.441406 135.078125 67.484375 135.046875 C 67.527344 135.019531 67.574219 134.996094 67.585938 134.996094 C 67.585938 134.996094 67.585938 134.996094 67.589844 134.996094 C 67.601562 134.996094 67.675781 134.960938 67.757812 134.917969 L 67.902344 134.84375 L 68.265625 134.84375 C 68.292969 134.84375 68.320312 134.84375 68.347656 134.84375 Z M 68.347656 134.84375 " fill-opacity="1" fill-rule="nonzero"/></g><g fill="#1f2034" fill-opacity="1"><g transform="translate(97.210433, 153.491893)"><g><path d="M 2.1875 0 L 3.984375 0 L 3.984375 -6.203125 L 11.046875 -6.203125 L 11.046875 0 L 12.828125 0 L 12.828125 -13.96875 L 11.046875 -13.96875 L 11.046875 -7.796875 L 3.984375 -7.796875 L 3.984375 -13.96875 L 2.1875 -13.96875 Z M 2.1875 0 "/></g></g></g><g fill="#1f2034" fill-opacity="1"><g transform="translate(113.651031, 153.491893)"><g><path d="M 8.171875 0.1875 C 12.078125 0.1875 15.109375 -2.515625 15.109375 -7 C 15.109375 -11.453125 12.078125 -14.15625 8.171875 -14.15625 C 4.234375 -14.15625 1.21875 -11.453125 1.21875 -7 C 1.21875 -2.515625 4.234375 0.1875 8.171875 0.1875 Z M 8.171875 -1.484375 C 5.28125 -1.484375 2.984375 -3.46875 2.984375 -7 C 2.984375 -10.46875 5.28125 -12.453125 8.171875 -12.453125 C 11.046875 -12.453125 13.328125 -10.46875 13.328125 -7 C 13.328125 -3.46875 11.046875 -1.484375 8.171875 -1.484375 Z M 8.171875 -1.484375 "/></g></g></g><g fill="#1f2034" fill-opacity="1"><g transform="translate(131.40102, 153.491893)"><g><path d="M 16.953125 0 L 15.90625 -13.96875 L 13.546875 -13.96875 L 9.296875 -3.078125 L 5.0625 -13.96875 L 2.734375 -13.96875 L 1.671875 0 L 3.40625 0 L 4.34375 -11.484375 L 8.78125 0 L 9.84375 0 L 14.296875 -11.53125 L 15.234375 0 Z M 16.953125 0 "/></g></g></g><g fill="#1f2034" fill-opacity="1"><g transform="translate(151.452366, 153.491893)"><g><path d="M 9.6875 -12.34375 L 9.6875 -13.96875 L 2.1875 -13.96875 L 2.1875 0 L 9.6875 0 L 9.6875 -1.609375 L 4 -1.609375 L 4 -6.171875 L 9 -6.171875 L 9 -7.78125 L 4 -7.78125 L 4 -12.34375 Z M 9.6875 -12.34375 "/></g></g></g><g fill="#1f2034" fill-opacity="1"><g transform="translate(163.766395, 153.491893)"><g/></g></g><g fill="#1f2034" fill-opacity="1"><g transform="translate(170.465913, 153.491893)"><g><path d="M 9.6875 -12.34375 L 9.6875 -13.96875 L 2.1875 -13.96875 L 2.1875 0 L 9.6875 0 L 9.6875 -1.609375 L 4 -1.609375 L 4 -6.171875 L 9 -6.171875 L 9 -7.78125 L 4 -7.78125 L 4 -12.34375 Z M 9.6875 -12.34375 "/></g></g></g><g fill="#1f2034" fill-opacity="1"><g transform="translate(182.779942, 153.491893)"><g><path d="M 0.5625 0 L 2.8125 0 L 7.0625 -5.921875 L 11.3125 0 L 13.546875 0 L 8.109375 -7.296875 L 13.296875 -13.96875 L 11.140625 -13.96875 L 7.0625 -8.546875 L 2.96875 -13.96875 L 0.8125 -13.96875 L 6.015625 -7.296875 Z M 0.5625 0 "/></g></g></g><g fill="#1f2034" fill-opacity="1"><g transform="translate(198.317856, 153.491893)"><g><path d="M 9.6875 -12.34375 L 9.6875 -13.96875 L 2.1875 -13.96875 L 2.1875 0 L 9.6875 0 L 9.6875 -1.609375 L 4 -1.609375 L 4 -6.171875 L 9 -6.171875 L 9 -7.78125 L 4 -7.78125 L 4 -12.34375 Z M 9.6875 -12.34375 "/></g></g></g><g fill="#1f2034" fill-opacity="1"><g transform="translate(210.631885, 153.491893)"><g><path d="M 11.828125 0 L 8.34375 -5.609375 C 9.0625 -5.78125 9.625 -6.0625 10.09375 -6.46875 C 11.046875 -7.203125 11.515625 -8.40625 11.515625 -9.90625 C 11.515625 -11.421875 11.015625 -12.484375 10.015625 -13.125 C 9.203125 -13.703125 8.046875 -13.96875 6.484375 -13.96875 L 2.1875 -13.96875 L 2.1875 0 L 3.96875 0 L 3.96875 -5.421875 L 6.609375 -5.421875 L 9.75 0 Z M 3.96875 -12.421875 L 6.265625 -12.421875 C 7.484375 -12.421875 8.359375 -12.296875 8.953125 -11.8125 C 9.421875 -11.421875 9.703125 -10.796875 9.703125 -9.84375 C 9.703125 -8.84375 9.4375 -8.1875 8.984375 -7.734375 C 8.421875 -7.15625 7.515625 -6.96875 6.265625 -6.96875 L 3.96875 -6.96875 Z M 3.96875 -12.421875 "/></g></g></g><g fill="#1f2034" fill-opacity="1"><g transform="translate(224.979442, 153.491893)"><g><path d="M 8.171875 0.1875 C 10.9375 0.1875 13.25 -1.171875 14.34375 -3.515625 L 12.703125 -4.1875 C 11.859375 -2.453125 10.171875 -1.5 8.171875 -1.5 C 5.28125 -1.5 2.984375 -3.484375 2.984375 -7 C 2.984375 -10.46875 5.28125 -12.453125 8.171875 -12.453125 C 10.171875 -12.453125 11.859375 -11.5 12.703125 -9.765625 L 14.34375 -10.4375 C 13.25 -12.78125 10.9375 -14.15625 8.171875 -14.15625 C 4.234375 -14.15625 1.21875 -11.453125 1.21875 -7 C 1.21875 -2.515625 4.234375 0.1875 8.171875 0.1875 Z M 8.171875 0.1875 "/></g></g></g><g fill="#1f2034" fill-opacity="1"><g transform="translate(241.5986, 153.491893)"><g><path d="M 2.1875 0 L 3.96875 0 L 3.96875 -13.96875 L 2.1875 -13.96875 Z M 2.1875 0 "/></g></g></g><g fill="#1f2034" fill-opacity="1"><g transform="translate(249.180969, 153.491893)"><g><path d="M 6.515625 0.1875 C 9.25 0.1875 11.453125 -1.09375 11.453125 -3.78125 C 11.453125 -6.609375 8.890625 -7.265625 6.640625 -7.859375 C 4.828125 -8.328125 3.25 -8.765625 3.25 -10.328125 C 3.25 -11.96875 4.71875 -12.609375 6.15625 -12.609375 C 7.78125 -12.609375 9.140625 -11.90625 9.578125 -10.328125 L 11.234375 -10.765625 C 10.703125 -13.109375 8.546875 -14.15625 6.09375 -14.15625 C 3.609375 -14.15625 1.453125 -12.875 1.453125 -10.296875 C 1.453125 -7.71875 3.625 -7.046875 5.796875 -6.46875 C 7.75 -5.9375 9.59375 -5.484375 9.625 -3.734375 C 9.65625 -1.96875 8.125 -1.34375 6.546875 -1.34375 C 4.65625 -1.34375 3.21875 -2.265625 2.78125 -3.921875 L 1.046875 -3.515625 C 1.515625 -1.203125 3.609375 0.1875 6.515625 0.1875 Z M 6.515625 0.1875 "/></g></g></g><g fill="#1f2034" fill-opacity="1"><g transform="translate(263.211106, 153.491893)"><g><path d="M 9.6875 -12.34375 L 9.6875 -13.96875 L 2.1875 -13.96875 L 2.1875 0 L 9.6875 0 L 9.6875 -1.609375 L 4 -1.609375 L 4 -6.171875 L 9 -6.171875 L 9 -7.78125 L 4 -7.78125 L 4 -12.34375 Z M 9.6875 -12.34375 "/></g></g></g><g fill="#1f2034" fill-opacity="1"><g transform="translate(275.525136, 153.491893)"><g/></g></g><g fill="#1f2034" fill-opacity="1"><g transform="translate(282.224661, 153.491893)"><g><path d="M 10.015625 -13.125 C 9.203125 -13.703125 8.046875 -13.96875 6.484375 -13.96875 L 2.1875 -13.96875 L 2.1875 0 L 3.96875 0 L 3.96875 -5.421875 L 6.484375 -5.421875 C 8.109375 -5.421875 9.28125 -5.765625 10.09375 -6.46875 C 11.046875 -7.203125 11.515625 -8.40625 11.515625 -9.90625 C 11.515625 -11.421875 11.015625 -12.484375 10.015625 -13.125 Z M 8.984375 -7.734375 C 8.421875 -7.15625 7.515625 -6.96875 6.265625 -6.96875 L 3.96875 -6.96875 L 3.96875 -12.421875 L 6.265625 -12.421875 C 7.484375 -12.421875 8.359375 -12.296875 8.953125 -11.8125 C 9.421875 -11.421875 9.703125 -10.796875 9.703125 -9.84375 C 9.703125 -8.84375 9.4375 -8.1875 8.984375 -7.734375 Z M 8.984375 -7.734375 "/></g></g></g><g fill="#1f2034" fill-opacity="1"><g transform="translate(296.115916, 153.491893)"><g><path d="M 11.828125 0 L 8.34375 -5.609375 C 9.0625 -5.78125 9.625 -6.0625 10.09375 -6.46875 C 11.046875 -7.203125 11.515625 -8.40625 11.515625 -9.90625 C 11.515625 -11.421875 11.015625 -12.484375 10.015625 -13.125 C 9.203125 -13.703125 8.046875 -13.96875 6.484375 -13.96875 L 2.1875 -13.96875 L 2.1875 0 L 3.96875 0 L 3.96875 -5.421875 L 6.609375 -5.421875 L 9.75 0 Z M 3.96875 -12.421875 L 6.265625 -12.421875 C 7.484375 -12.421875 8.359375 -12.296875 8.953125 -11.8125 C 9.421875 -11.421875 9.703125 -10.796875 9.703125 -9.84375 C 9.703125 -8.84375 9.4375 -8.1875 8.984375 -7.734375 C 8.421875 -7.15625 7.515625 -6.96875 6.265625 -6.96875 L 3.96875 -6.96875 Z M 3.96875 -12.421875 "/></g></g></g><g fill="#1f2034" fill-opacity="1"><g transform="translate(310.463482, 153.491893)"><g><path d="M 8.171875 0.1875 C 12.078125 0.1875 15.109375 -2.515625 15.109375 -7 C 15.109375 -11.453125 12.078125 -14.15625 8.171875 -14.15625 C 4.234375 -14.15625 1.21875 -11.453125 1.21875 -7 C 1.21875 -2.515625 4.234375 0.1875 8.171875 0.1875 Z M 8.171875 -1.484375 C 5.28125 -1.484375 2.984375 -3.46875 2.984375 -7 C 2.984375 -10.46875 5.28125 -12.453125 8.171875 -12.453125 C 11.046875 -12.453125 13.328125 -10.46875 13.328125 -7 C 13.328125 -3.46875 11.046875 -1.484375 8.171875 -1.484375 Z M 8.171875 -1.484375 "/></g></g></g><g fill="#0583f2" fill-opacity="1"><g transform="translate(163.740848, 171.904225)"><g><path d="M 9.125 -9.140625 L 9.125 0 L 8.171875 0 L 8.171875 -4.21875 L 2.453125 -4.21875 L 2.453125 0 L 1.484375 0 L 1.484375 -9.140625 L 2.453125 -9.140625 L 2.453125 -5.0625 L 8.171875 -5.0625 L 8.171875 -9.140625 Z M 9.125 -9.140625 "/></g></g></g><g fill="#0583f2" fill-opacity="1"><g transform="translate(176.031904, 171.904225)"><g><path d="M 7.953125 -0.84375 L 7.953125 0 L 1.484375 0 L 1.484375 -9.140625 L 7.765625 -9.140625 L 7.765625 -8.3125 L 2.453125 -8.3125 L 2.453125 -5.0625 L 7.1875 -5.0625 L 7.1875 -4.234375 L 2.453125 -4.234375 L 2.453125 -0.84375 Z M 7.953125 -0.84375 "/></g></g></g><g fill="#0583f2" fill-opacity="1"><g transform="translate(186.442075, 171.904225)"><g><path d="M 4.90625 -9.140625 C 6.070312 -9.140625 6.984375 -8.859375 7.640625 -8.296875 C 8.304688 -7.742188 8.640625 -6.984375 8.640625 -6.015625 C 8.640625 -5.035156 8.304688 -4.269531 7.640625 -3.71875 C 6.984375 -3.164062 6.070312 -2.890625 4.90625 -2.890625 L 2.453125 -2.890625 L 2.453125 0 L 1.484375 0 L 1.484375 -9.140625 Z M 4.890625 -3.734375 C 5.796875 -3.734375 6.488281 -3.929688 6.96875 -4.328125 C 7.445312 -4.722656 7.6875 -5.285156 7.6875 -6.015625 C 7.6875 -6.753906 7.445312 -7.320312 6.96875 -7.71875 C 6.488281 -8.113281 5.796875 -8.3125 4.890625 -8.3125 L 2.453125 -8.3125 L 2.453125 -3.734375 Z M 4.890625 -3.734375 "/></g></g></g><g fill="#0583f2" fill-opacity="1"><g transform="translate(197.492268, 171.904225)"><g/></g></g><g fill="#0583f2" fill-opacity="1"><g transform="translate(202.586329, 171.904225)"><g><path d="M 7.25 -4.71875 C 7.851562 -4.582031 8.316406 -4.320312 8.640625 -3.9375 C 8.960938 -3.550781 9.125 -3.050781 9.125 -2.4375 C 9.125 -1.65625 8.832031 -1.050781 8.25 -0.625 C 7.675781 -0.207031 6.820312 0 5.6875 0 L 1.484375 0 L 1.484375 -9.140625 L 5.4375 -9.140625 C 6.457031 -9.140625 7.242188 -8.9375 7.796875 -8.53125 C 8.359375 -8.125 8.640625 -7.546875 8.640625 -6.796875 C 8.640625 -6.285156 8.515625 -5.851562 8.265625 -5.5 C 8.023438 -5.15625 7.6875 -4.894531 7.25 -4.71875 Z M 2.453125 -8.34375 L 2.453125 -5.03125 L 5.375 -5.03125 C 6.113281 -5.03125 6.679688 -5.171875 7.078125 -5.453125 C 7.484375 -5.734375 7.6875 -6.144531 7.6875 -6.6875 C 7.6875 -7.226562 7.484375 -7.640625 7.078125 -7.921875 C 6.679688 -8.203125 6.113281 -8.34375 5.375 -8.34375 Z M 5.6875 -0.796875 C 6.5 -0.796875 7.113281 -0.929688 7.53125 -1.203125 C 7.945312 -1.484375 8.15625 -1.921875 8.15625 -2.515625 C 8.15625 -3.660156 7.332031 -4.234375 5.6875 -4.234375 L 2.453125 -4.234375 L 2.453125 -0.796875 Z M 5.6875 -0.796875 "/></g></g></g><g fill="#0583f2" fill-opacity="1"><g transform="translate(214.106742, 171.904225)"><g><path d="M 7.484375 -6.875 L 7.484375 0 L 6.59375 0 L 6.59375 -1.25 C 6.351562 -0.832031 6.019531 -0.507812 5.59375 -0.28125 C 5.164062 -0.0507812 4.675781 0.0625 4.125 0.0625 C 3.226562 0.0625 2.519531 -0.1875 2 -0.6875 C 1.488281 -1.1875 1.234375 -1.921875 1.234375 -2.890625 L 1.234375 -6.875 L 2.15625 -6.875 L 2.15625 -2.984375 C 2.15625 -2.253906 2.332031 -1.703125 2.6875 -1.328125 C 3.039062 -0.953125 3.550781 -0.765625 4.21875 -0.765625 C 4.9375 -0.765625 5.503906 -0.984375 5.921875 -1.421875 C 6.347656 -1.867188 6.5625 -2.484375 6.5625 -3.265625 L 6.5625 -6.875 Z M 7.484375 -6.875 "/></g></g></g><g fill="#0583f2" fill-opacity="1"><g transform="translate(224.569155, 171.904225)"><g><path d="M 1.296875 -6.875 L 2.21875 -6.875 L 2.21875 0 L 1.296875 0 Z M 1.765625 -8.375 C 1.578125 -8.375 1.414062 -8.4375 1.28125 -8.5625 C 1.15625 -8.695312 1.09375 -8.859375 1.09375 -9.046875 C 1.09375 -9.210938 1.15625 -9.359375 1.28125 -9.484375 C 1.414062 -9.617188 1.578125 -9.6875 1.765625 -9.6875 C 1.960938 -9.6875 2.125 -9.625 2.25 -9.5 C 2.382812 -9.375 2.453125 -9.222656 2.453125 -9.046875 C 2.453125 -8.859375 2.382812 -8.695312 2.25 -8.5625 C 2.125 -8.4375 1.960938 -8.375 1.765625 -8.375 Z M 1.765625 -8.375 "/></g></g></g><g fill="#0583f2" fill-opacity="1"><g transform="translate(229.754648, 171.904225)"><g><path d="M 1.296875 -9.6875 L 2.21875 -9.6875 L 2.21875 0 L 1.296875 0 Z M 1.296875 -9.6875 "/></g></g></g><g fill="#0583f2" fill-opacity="1"><g transform="translate(234.940145, 171.904225)"><g><path d="M 7.5625 -9.6875 L 7.5625 0 L 6.671875 0 L 6.671875 -1.359375 C 6.390625 -0.898438 6.019531 -0.546875 5.5625 -0.296875 C 5.113281 -0.0546875 4.597656 0.0625 4.015625 0.0625 C 3.378906 0.0625 2.796875 -0.0820312 2.265625 -0.375 C 1.742188 -0.675781 1.332031 -1.09375 1.03125 -1.625 C 0.738281 -2.15625 0.59375 -2.757812 0.59375 -3.4375 C 0.59375 -4.113281 0.738281 -4.71875 1.03125 -5.25 C 1.332031 -5.78125 1.742188 -6.191406 2.265625 -6.484375 C 2.796875 -6.773438 3.378906 -6.921875 4.015625 -6.921875 C 4.578125 -6.921875 5.082031 -6.804688 5.53125 -6.578125 C 5.976562 -6.347656 6.347656 -6.007812 6.640625 -5.5625 L 6.640625 -9.6875 Z M 4.109375 -0.75 C 4.578125 -0.75 5.003906 -0.859375 5.390625 -1.078125 C 5.785156 -1.304688 6.09375 -1.625 6.3125 -2.03125 C 6.539062 -2.445312 6.65625 -2.914062 6.65625 -3.4375 C 6.65625 -3.957031 6.539062 -4.421875 6.3125 -4.828125 C 6.09375 -5.242188 5.785156 -5.5625 5.390625 -5.78125 C 5.003906 -6 4.578125 -6.109375 4.109375 -6.109375 C 3.617188 -6.109375 3.175781 -6 2.78125 -5.78125 C 2.394531 -5.5625 2.09375 -5.242188 1.875 -4.828125 C 1.65625 -4.421875 1.546875 -3.957031 1.546875 -3.4375 C 1.546875 -2.914062 1.65625 -2.445312 1.875 -2.03125 C 2.09375 -1.625 2.394531 -1.304688 2.78125 -1.078125 C 3.175781 -0.859375 3.617188 -0.75 4.109375 -0.75 Z M 4.109375 -0.75 "/></g></g></g><g fill="#0583f2" fill-opacity="1"><g transform="translate(245.467876, 171.904225)"><g><path d="M 7.28125 -3.140625 L 1.53125 -3.140625 C 1.582031 -2.429688 1.851562 -1.851562 2.34375 -1.40625 C 2.84375 -0.96875 3.472656 -0.75 4.234375 -0.75 C 4.660156 -0.75 5.050781 -0.828125 5.40625 -0.984375 C 5.757812 -1.140625 6.066406 -1.363281 6.328125 -1.65625 L 6.859375 -1.0625 C 6.554688 -0.695312 6.175781 -0.414062 5.71875 -0.21875 C 5.257812 -0.03125 4.753906 0.0625 4.203125 0.0625 C 3.492188 0.0625 2.867188 -0.0859375 2.328125 -0.390625 C 1.785156 -0.691406 1.359375 -1.101562 1.046875 -1.625 C 0.742188 -2.15625 0.59375 -2.757812 0.59375 -3.4375 C 0.59375 -4.101562 0.738281 -4.703125 1.03125 -5.234375 C 1.320312 -5.765625 1.722656 -6.175781 2.234375 -6.46875 C 2.742188 -6.769531 3.316406 -6.921875 3.953125 -6.921875 C 4.585938 -6.921875 5.15625 -6.769531 5.65625 -6.46875 C 6.164062 -6.175781 6.5625 -5.765625 6.84375 -5.234375 C 7.132812 -4.710938 7.28125 -4.113281 7.28125 -3.4375 Z M 3.953125 -6.125 C 3.296875 -6.125 2.742188 -5.910156 2.296875 -5.484375 C 1.847656 -5.066406 1.59375 -4.519531 1.53125 -3.84375 L 6.40625 -3.84375 C 6.34375 -4.519531 6.085938 -5.066406 5.640625 -5.484375 C 5.191406 -5.910156 4.628906 -6.125 3.953125 -6.125 Z M 3.953125 -6.125 "/></g></g></g><g fill="#0583f2" fill-opacity="1"><g transform="translate(255.029039, 171.904225)"><g><path d="M 2.1875 -5.53125 C 2.40625 -5.988281 2.726562 -6.332031 3.15625 -6.5625 C 3.582031 -6.800781 4.113281 -6.921875 4.75 -6.921875 L 4.75 -6.015625 L 4.53125 -6.03125 C 3.8125 -6.03125 3.242188 -5.804688 2.828125 -5.359375 C 2.421875 -4.921875 2.21875 -4.300781 2.21875 -3.5 L 2.21875 0 L 1.296875 0 L 1.296875 -6.875 L 2.1875 -6.875 Z M 2.1875 -5.53125 "/></g></g></g></svg>